$MeshFormat
2.2 0 8
$EndMeshFormat
$PhysicalNames
7
2 1 "boundary:x_max"
2 2 "boundary:x_min"
2 3 "boundary:z_min"
2 4 "boundary:z_max"
2 5 "boundary:base"
2 6 "boundary:top"
3 1 "region:general_foundation"
$EndPhysicalNames
$Nodes
8
1 0 0 0
2 1 0 0
3 1 1 0
4 0 1 0
5 0 0 1
6 1 0 1
7 1 1 1
8 0 1 1
$EndNodes
$Elements
18
1 2 2 3 3 1 2 3
2 2 2 3 3 1 3 4
3 2 2 2 2 1 4 8
4 2 2 2 2 1 8 5
5 2 2 5 5 1 5 6
6 2 2 5 5 1 6 2
7 2 2 1 1 2 3 7
8 2 2 1 1 6 2 7
9 2 2 4 4 8 5 7
10 2 2 4 4 5 6 7
11 2 2 6 6 3 4 7
12 2 2 6 6 4 8 7
13 4 2 1 1 1 2 3 7
14 4 2 1 1 1 3 4 7
15 4 2 1 1 1 4 8 7
16 4 2 1 1 1 8 5 7
17 4 2 1 1 1 5 6 7
18 4 2 1 1 1 6 2 7
$EndElements
