$MeshFormat
4.1 0 8
$EndMeshFormat
$PhysicalNames
9
0 1 "nodeset:left"
0 2 "nodeset:right"
0 3 "nodeset:base"
1 1 "boundary:base"
1 2 "boundary:slope_surface"
1 3 "boundary:left"
1 4 "boundary:right"
1 5 "boundary:crest"
2 1 "region:slope_mass"
$EndPhysicalNames
$Entities
3 5 1 0
1 0 0 0 1 1
2 40 0 0 1 2
3 1 0 0 1 3
1 0 0 0 40 0 0 1 1 0
2 15 10 0 40 20 0 1 2 0
3 0 0 0 0 20 0 1 3 0
4 40 0 0 40 10 0 1 4 0
5 0 20 0 15 20 0 1 5 0
1 0 0 0 40 20 0 1 1 0
$EndEntities
$Nodes
9 711 1 711
0 1 0 21
1
42
83
124
165
206
247
288
329
370
411
452
478
504
530
556
582
608
634
660
686
0 0 0
0 1 0
0 2 0
0 3 0
0 4 0
0 5 0
0 6 0
0 7 0
0 8 0
0 9 0
0 10 0
0 11 0
0 12 0
0 13 0
0 14 0
0 15 0
0 16 0
0 17 0
0 18 0
0 19 0
0 20 0
0 2 0 11
41
82
123
164
205
246
287
328
369
410
451
40 0 0
40 1 0
40 2 0
40 3 0
40 4 0
40 5 0
40 6 0
40 7 0
40 8 0
40 9 0
40 10 0
0 3 0 39
2
3
4
5
6
7
8
9
10
11
12
13
14
15
16
17
18
19
20
21
22
23
24
25
26
27
28
29
30
31
32
33
34
35
36
37
38
39
40
1 0 0
2 0 0
3 0 0
4 0 0
5 0 0
6 0 0
7 0 0
8 0 0
9 0 0
10 0 0
11 0 0
12 0 0
13 0 0
14 0 0
15 0 0
16 0 0
17 0 0
18 0 0
19 0 0
20 0 0
21 0 0
22 0 0
23 0 0
24 0 0
25 0 0
26 0 0
27 0 0
28 0 0
29 0 0
30 0 0
31 0 0
32 0 0
33 0 0
34 0 0
35 0 0
36 0 0
37 0 0
38 0 0
39 0 0
1 1 0 0
1 2 0 25
436
437
438
439
440
441
442
443
444
445
446
447
448
449
450
477
503
529
555
581
607
633
659
685
711
25 10 0
26 10 0
27 10 0
28 10 0
29 10 0
30 10 0
31 10 0
32 10 0
33 10 0
34 10 0
35 10 0
36 10 0
37 10 0
38 10 0
39 10 0
24 11 0
23 12 0
22 13 0
21 14 0
20 15 0
19 16 0
18 17 0
17 18 0
16 19 0
15 20 0
1 3 0 0
1 4 0 0
1 5 0 24
687
688
689
690
691
692
693
694
695
696
697
698
699
700
701
702
703
704
705
706
707
708
709
710
0.6 20 0
1.2 20 0
1.8 20 0
2.4 20 0
3 20 0
3.6 20 0
4.2 20 0
4.8 20 0
5.399999999999999 20 0
6 20 0
6.6 20 0
7.199999999999999 20 0
7.8 20 0
8.4 20 0
9 20 0
9.6 20 0
10.2 20 0
10.8 20 0
11.4 20 0
12 20 0
12.6 20 0
13.2 20 0
13.8 20 0
14.4 20 0
2 1 0 591
43
44
45
46
47
48
49
50
51
52
53
54
55
56
57
58
59
60
61
62
63
64
65
66
67
68
69
70
71
72
73
74
75
76
77
78
79
80
81
84
85
86
87
88
89
90
91
92
93
94
95
96
97
98
99
100
101
102
103
104
105
106
107
108
109
110
111
112
113
114
115
116
117
118
119
120
121
122
125
126
127
128
129
130
131
132
133
134
135
136
137
138
139
140
141
142
143
144
145
146
147
148
149
150
151
152
153
154
155
156
157
158
159
160
161
162
163
166
167
168
169
170
171
172
173
174
175
176
177
178
179
180
181
182
183
184
185
186
187
188
189
190
191
192
193
194
195
196
197
198
199
200
201
202
203
204
207
208
209
210
211
212
213
214
215
216
217
218
219
220
221
222
223
224
225
226
227
228
229
230
231
232
233
234
235
236
237
238
239
240
241
242
243
244
245
248
249
250
251
252
253
254
255
256
257
258
259
260
261
262
263
264
265
266
267
268
269
270
271
272
273
274
275
276
277
278
279
280
281
282
283
284
285
286
289
290
291
292
293
294
295
296
297
298
299
300
301
302
303
304
305
306
307
308
309
310
311
312
313
314
315
316
317
318
319
320
321
322
323
324
325
326
327
330
331
332
333
334
335
336
337
338
339
340
341
342
343
344
345
346
347
348
349
350
351
352
353
354
355
356
357
358
359
360
361
362
363
364
365
366
367
368
371
372
373
374
375
376
377
378
379
380
381
382
383
384
385
386
387
388
389
390
391
392
393
394
395
396
397
398
399
400
401
402
403
404
405
406
407
408
409
412
413
414
415
416
417
418
419
420
421
422
423
424
425
426
427
428
429
430
431
432
433
434
435
453
454
455
456
457
458
459
460
461
462
463
464
465
466
467
468
469
470
471
472
473
474
475
476
479
480
481
482
483
484
485
486
487
488
489
490
491
492
493
494
495
496
497
498
499
500
501
502
505
506
507
508
509
510
511
512
513
514
515
516
517
518
519
520
521
522
523
524
525
526
527
528
531
532
533
534
535
536
537
538
539
540
541
542
543
544
545
546
547
548
549
550
551
552
553
554
557
558
559
560
561
562
563
564
565
566
567
568
569
570
571
572
573
574
575
576
577
578
579
580
583
584
585
586
587
588
589
590
591
592
593
594
595
596
597
598
599
600
601
602
603
604
605
606
609
610
611
612
613
614
615
616
617
618
619
620
621
622
623
624
625
626
627
628
629
630
631
632
635
636
637
638
639
640
641
642
643
644
645
646
647
648
649
650
651
652
653
654
655
656
657
658
661
662
663
664
665
666
667
668
669
670
671
672
673
674
675
676
677
678
679
680
681
682
683
684
1 1 0
2 1 0
3 1 0
4 1 0
5 1 0
6 1 0
7 1 0
8 1 0
9 1 0
10 1 0
11 1 0
12 1 0
13 1 0
14 1 0
15 1 0
16 1 0
17 1 0
18 1 0
19 1 0
20 1 0
21 1 0
22 1 0
23 1 0
24 1 0
25 1 0
26 1 0
27 1 0
28 1 0
29 1 0
30 1 0
31 1 0
32 1 0
33 1 0
34 1 0
35 1 0
36 1 0
37 1 0
38 1 0
39 1 0
1 2 0
2 2 0
3 2 0
4 2 0
5 2 0
6 2 0
7 2 0
8 2 0
9 2 0
10 2 0
11 2 0
12 2 0
13 2 0
14 2 0
15 2 0
16 2 0
17 2 0
18 2 0
19 2 0
20 2 0
21 2 0
22 2 0
23 2 0
24 2 0
25 2 0
26 2 0
27 2 0
28 2 0
29 2 0
30 2 0
31 2 0
32 2 0
33 2 0
34 2 0
35 2 0
36 2 0
37 2 0
38 2 0
39 2 0
1 3 0
2 3 0
3 3 0
4 3 0
5 3 0
6 3 0
7 3 0
8 3 0
9 3 0
10 3 0
11 3 0
12 3 0
13 3 0
14 3 0
15 3 0
16 3 0
17 3 0
18 3 0
19 3 0
20 3 0
21 3 0
22 3 0
23 3 0
24 3 0
25 3 0
26 3 0
27 3 0
28 3 0
29 3 0
30 3 0
31 3 0
32 3 0
33 3 0
34 3 0
35 3 0
36 3 0
37 3 0
38 3 0
39 3 0
1 4 0
2 4 0
3 4 0
4 4 0
5 4 0
6 4 0
7 4 0
8 4 0
9 4 0
10 4 0
11 4 0
12 4 0
13 4 0
14 4 0
15 4 0
16 4 0
17 4 0
18 4 0
19 4 0
20 4 0
21 4 0
22 4 0
23 4 0
24 4 0
25 4 0
26 4 0
27 4 0
28 4 0
29 4 0
30 4 0
31 4 0
32 4 0
33 4 0
34 4 0
35 4 0
36 4 0
37 4 0
38 4 0
39 4 0
1 5 0
2 5 0
3 5 0
4 5 0
5 5 0
6 5 0
7 5 0
8 5 0
9 5 0
10 5 0
11 5 0
12 5 0
13 5 0
14 5 0
15 5 0
16 5 0
17 5 0
18 5 0
19 5 0
20 5 0
21 5 0
22 5 0
23 5 0
24 5 0
25 5 0
26 5 0
27 5 0
28 5 0
29 5 0
30 5 0
31 5 0
32 5 0
33 5 0
34 5 0
35 5 0
36 5 0
37 5 0
38 5 0
39 5 0
1 6 0
2 6 0
3 6 0
4 6 0
5 6 0
6 6 0
7 6 0
8 6 0
9 6 0
10 6 0
11 6 0
12 6 0
13 6 0
14 6 0
15 6 0
16 6 0
17 6 0
18 6 0
19 6 0
20 6 0
21 6 0
22 6 0
23 6 0
24 6 0
25 6 0
26 6 0
27 6 0
28 6 0
29 6 0
30 6 0
31 6 0
32 6 0
33 6 0
34 6 0
35 6 0
36 6 0
37 6 0
38 6 0
39 6 0
1 7 0
2 7 0
3 7 0
4 7 0
5 7 0
6 7 0
7 7 0
8 7 0
9 7 0
10 7 0
11 7 0
12 7 0
13 7 0
14 7 0
15 7 0
16 7 0
17 7 0
18 7 0
19 7 0
20 7 0
21 7 0
22 7 0
23 7 0
24 7 0
25 7 0
26 7 0
27 7 0
28 7 0
29 7 0
30 7 0
31 7 0
32 7 0
33 7 0
34 7 0
35 7 0
36 7 0
37 7 0
38 7 0
39 7 0
1 8 0
2 8 0
3 8 0
4 8 0
5 8 0
6 8 0
7 8 0
8 8 0
9 8 0
10 8 0
11 8 0
12 8 0
13 8 0
14 8 0
15 8 0
16 8 0
17 8 0
18 8 0
19 8 0
20 8 0
21 8 0
22 8 0
23 8 0
24 8 0
25 8 0
26 8 0
27 8 0
28 8 0
29 8 0
30 8 0
31 8 0
32 8 0
33 8 0
34 8 0
35 8 0
36 8 0
37 8 0
38 8 0
39 8 0
1 9 0
2 9 0
3 9 0
4 9 0
5 9 0
6 9 0
7 9 0
8 9 0
9 9 0
10 9 0
11 9 0
12 9 0
13 9 0
14 9 0
15 9 0
16 9 0
17 9 0
18 9 0
19 9 0
20 9 0
21 9 0
22 9 0
23 9 0
24 9 0
25 9 0
26 9 0
27 9 0
28 9 0
29 9 0
30 9 0
31 9 0
32 9 0
33 9 0
34 9 0
35 9 0
36 9 0
37 9 0
38 9 0
39 9 0
1 10 0
2 10 0
3 10 0
4 10 0
5 10 0
6 10 0
7 10 0
8 10 0
9 10 0
10 10 0
11 10 0
12 10 0
13 10 0
14 10 0
15 10 0
16 10 0
17 10 0
18 10 0
19 10 0
20 10 0
21 10 0
22 10 0
23 10 0
24 10 0
0.96 11 0
1.92 11 0
2.88 11 0
3.84 11 0
4.8 11 0
5.76 11 0
6.72 11 0
7.68 11 0
8.640000000000001 11 0
9.6 11 0
10.56 11 0
11.52 11 0
12.48 11 0
13.44 11 0
14.4 11 0
15.36 11 0
16.32 11 0
17.28 11 0
18.24 11 0
19.2 11 0
20.16 11 0
21.12 11 0
22.08 11 0
23.04 11 0
0.92 12 0
1.84 12 0
2.76 12 0
3.68 12 0
4.600000000000001 12 0
5.52 12 0
6.44 12 0
7.36 12 0
8.280000000000001 12 0
9.200000000000001 12 0
10.12 12 0
11.04 12 0
11.96 12 0
12.88 12 0
13.8 12 0
14.72 12 0
15.64 12 0
16.56 12 0
17.48 12 0
18.4 12 0
19.32 12 0
20.24 12 0
21.16 12 0
22.08 12 0
0.88 13 0
1.76 13 0
2.64 13 0
3.52 13 0
4.4 13 0
5.28 13 0
6.16 13 0
7.04 13 0
7.92 13 0
8.800000000000001 13 0
9.68 13 0
10.56 13 0
11.44 13 0
12.32 13 0
13.2 13 0
14.08 13 0
14.96 13 0
15.84 13 0
16.72 13 0
17.6 13 0
18.48 13 0
19.36 13 0
20.24 13 0
21.12 13 0
0.84 14 0
1.68 14 0
2.52 14 0
3.36 14 0
4.2 14 0
5.04 14 0
5.88 14 0
6.72 14 0
7.56 14 0
8.4 14 0
9.24 14 0
10.08 14 0
10.92 14 0
11.76 14 0
12.6 14 0
13.44 14 0
14.28 14 0
15.12 14 0
15.96 14 0
16.8 14 0
17.64 14 0
18.48 14 0
19.32 14 0
20.16 14 0
0.8 15 0
1.6 15 0
2.4 15 0
3.2 15 0
4 15 0
4.800000000000001 15 0
5.600000000000001 15 0
6.4 15 0
7.2 15 0
8 15 0
8.800000000000001 15 0
9.600000000000001 15 0
10.4 15 0
11.2 15 0
12 15 0
12.8 15 0
13.6 15 0
14.4 15 0
15.2 15 0
16 15 0
16.8 15 0
17.6 15 0
18.4 15 0
19.2 15 0
0.76 16 0
1.52 16 0
2.28 16 0
3.04 16 0
3.8 16 0
4.56 16 0
5.32 16 0
6.08 16 0
6.84 16 0
7.6 16 0
8.359999999999999 16 0
9.120000000000001 16 0
9.880000000000001 16 0
10.64 16 0
11.4 16 0
12.16 16 0
12.92 16 0
13.68 16 0
14.44 16 0
15.2 16 0
15.96 16 0
16.72 16 0
17.48 16 0
18.24 16 0
0.72 17 0
1.44 17 0
2.16 17 0
2.88 17 0
3.6 17 0
4.32 17 0
5.04 17 0
5.76 17 0
6.48 17 0
7.199999999999999 17 0
7.92 17 0
8.640000000000001 17 0
9.359999999999999 17 0
10.08 17 0
10.8 17 0
11.52 17 0
12.24 17 0
12.96 17 0
13.68 17 0
14.4 17 0
15.12 17 0
15.84 17 0
16.56 17 0
17.28 17 0
0.68 18 0
1.36 18 0
2.04 18 0
2.72 18 0
3.4 18 0
4.08 18 0
4.760000000000001 18 0
5.44 18 0
6.12 18 0
6.800000000000001 18 0
7.48 18 0
8.16 18 0
8.84 18 0
9.520000000000001 18 0
10.2 18 0
10.88 18 0
11.56 18 0
12.24 18 0
12.92 18 0
13.6 18 0
14.28 18 0
14.96 18 0
15.64 18 0
16.32 18 0
0.64 19 0
1.28 19 0
1.92 19 0
2.56 19 0
3.2 19 0
3.84 19 0
4.48 19 0
5.12 19 0
5.76 19 0
6.4 19 0
7.04 19 0
7.68 19 0
8.32 19 0
8.960000000000001 19 0
9.6 19 0
10.24 19 0
10.88 19 0
11.52 19 0
12.16 19 0
12.8 19 0
13.44 19 0
14.08 19 0
14.72 19 0
15.36 19 0
$EndNodes
$Elements
9 1493 1 1493
0 1 15 21
1421 1
1422 42
1423 83
1424 124
1425 165
1426 206
1427 247
1428 288
1429 329
1430 370
1431 411
1432 452
1433 478
1434 504
1435 530
1436 556
1437 582
1438 608
1439 634
1440 660
1441 686
0 2 15 11
1442 41
1443 82
1444 123
1445 164
1446 205
1447 246
1448 287
1449 328
1450 369
1451 410
1452 451
0 3 15 41
1453 1
1454 2
1455 3
1456 4
1457 5
1458 6
1459 7
1460 8
1461 9
1462 10
1463 11
1464 12
1465 13
1466 14
1467 15
1468 16
1469 17
1470 18
1471 19
1472 20
1473 21
1474 22
1475 23
1476 24
1477 25
1478 26
1479 27
1480 28
1481 29
1482 30
1483 31
1484 32
1485 33
1486 34
1487 35
1488 36
1489 37
1490 38
1491 39
1492 40
1493 41
1 1 1 40
1301 1 2
1302 2 3
1303 3 4
1304 4 5
1305 5 6
1306 6 7
1307 7 8
1308 8 9
1309 9 10
1310 10 11
1311 11 12
1312 12 13
1313 13 14
1314 14 15
1315 15 16
1316 16 17
1317 17 18
1318 18 19
1319 19 20
1320 20 21
1321 21 22
1322 22 23
1323 23 24
1324 24 25
1325 25 26
1326 26 27
1327 27 28
1328 28 29
1329 29 30
1330 30 31
1331 31 32
1332 32 33
1333 33 34
1334 34 35
1335 35 36
1336 36 37
1337 37 38
1338 38 39
1339 39 40
1340 40 41
1 2 1 25
1341 437 436
1342 438 437
1343 439 438
1344 440 439
1345 441 440
1346 442 441
1347 443 442
1348 444 443
1349 445 444
1350 446 445
1351 447 446
1352 448 447
1353 449 448
1354 450 449
1355 451 450
1402 477 436
1404 503 477
1406 529 503
1408 555 529
1410 581 555
1412 607 581
1414 633 607
1416 659 633
1418 685 659
1420 711 685
1 3 1 20
1356 1 42
1358 42 83
1360 83 124
1362 124 165
1364 165 206
1366 206 247
1368 247 288
1370 288 329
1372 329 370
1374 370 411
1401 411 452
1403 452 478
1405 478 504
1407 504 530
1409 530 556
1411 556 582
1413 582 608
1415 608 634
1417 634 660
1419 660 686
1 4 1 10
1357 82 41
1359 123 82
1361 164 123
1363 205 164
1365 246 205
1367 287 246
1369 328 287
1371 369 328
1373 410 369
1375 451 410
1 5 1 25
1376 687 686
1377 688 687
1378 689 688
1379 690 689
1380 691 690
1381 692 691
1382 693 692
1383 694 693
1384 695 694
1385 696 695
1386 697 696
1387 698 697
1388 699 698
1389 700 699
1390 701 700
1391 702 701
1392 703 702
1393 704 703
1394 705 704
1395 706 705
1396 707 706
1397 708 707
1398 709 708
1399 710 709
1400 711 710
2 1 2 1300
1 1 2 42
2 43 42 2
3 2 3 43
4 44 43 3
5 3 4 44
6 45 44 4
7 4 5 45
8 46 45 5
9 5 6 46
10 47 46 6
11 6 7 47
12 48 47 7
13 7 8 48
14 49 48 8
15 8 9 49
16 50 49 9
17 9 10 50
18 51 50 10
19 10 11 51
20 52 51 11
21 11 12 52
22 53 52 12
23 12 13 53
24 54 53 13
25 13 14 54
26 55 54 14
27 14 15 55
28 56 55 15
29 15 16 56
30 57 56 16
31 16 17 57
32 58 57 17
33 17 18 58
34 59 58 18
35 18 19 59
36 60 59 19
37 19 20 60
38 61 60 20
39 20 21 61
40 62 61 21
41 21 22 62
42 63 62 22
43 22 23 63
44 64 63 23
45 23 24 64
46 65 64 24
47 24 25 65
48 66 65 25
49 25 26 66
50 67 66 26
51 26 27 67
52 68 67 27
53 27 28 68
54 69 68 28
55 28 29 69
56 70 69 29
57 29 30 70
58 71 70 30
59 30 31 71
60 72 71 31
61 31 32 72
62 73 72 32
63 32 33 73
64 74 73 33
65 33 34 74
66 75 74 34
67 34 35 75
68 76 75 35
69 35 36 76
70 77 76 36
71 36 37 77
72 78 77 37
73 37 38 78
74 79 78 38
75 38 39 79
76 80 79 39
77 39 40 80
78 81 80 40
79 40 41 81
80 82 81 41
81 42 43 83
82 84 83 43
83 43 44 84
84 85 84 44
85 44 45 85
86 86 85 45
87 45 46 86
88 87 86 46
89 46 47 87
90 88 87 47
91 47 48 88
92 89 88 48
93 48 49 89
94 90 89 49
95 49 50 90
96 91 90 50
97 50 51 91
98 92 91 51
99 51 52 92
100 93 92 52
101 52 53 93
102 94 93 53
103 53 54 94
104 95 94 54
105 54 55 95
106 96 95 55
107 55 56 96
108 97 96 56
109 56 57 97
110 98 97 57
111 57 58 98
112 99 98 58
113 58 59 99
114 100 99 59
115 59 60 100
116 101 100 60
117 60 61 101
118 102 101 61
119 61 62 102
120 103 102 62
121 62 63 103
122 104 103 63
123 63 64 104
124 105 104 64
125 64 65 105
126 106 105 65
127 65 66 106
128 107 106 66
129 66 67 107
130 108 107 67
131 67 68 108
132 109 108 68
133 68 69 109
134 110 109 69
135 69 70 110
136 111 110 70
137 70 71 111
138 112 111 71
139 71 72 112
140 113 112 72
141 72 73 113
142 114 113 73
143 73 74 114
144 115 114 74
145 74 75 115
146 116 115 75
147 75 76 116
148 117 116 76
149 76 77 117
150 118 117 77
151 77 78 118
152 119 118 78
153 78 79 119
154 120 119 79
155 79 80 120
156 121 120 80
157 80 81 121
158 122 121 81
159 81 82 122
160 123 122 82
161 83 84 124
162 125 124 84
163 84 85 125
164 126 125 85
165 85 86 126
166 127 126 86
167 86 87 127
168 128 127 87
169 87 88 128
170 129 128 88
171 88 89 129
172 130 129 89
173 89 90 130
174 131 130 90
175 90 91 131
176 132 131 91
177 91 92 132
178 133 132 92
179 92 93 133
180 134 133 93
181 93 94 134
182 135 134 94
183 94 95 135
184 136 135 95
185 95 96 136
186 137 136 96
187 96 97 137
188 138 137 97
189 97 98 138
190 139 138 98
191 98 99 139
192 140 139 99
193 99 100 140
194 141 140 100
195 100 101 141
196 142 141 101
197 101 102 142
198 143 142 102
199 102 103 143
200 144 143 103
201 103 104 144
202 145 144 104
203 104 105 145
204 146 145 105
205 105 106 146
206 147 146 106
207 106 107 147
208 148 147 107
209 107 108 148
210 149 148 108
211 108 109 149
212 150 149 109
213 109 110 150
214 151 150 110
215 110 111 151
216 152 151 111
217 111 112 152
218 153 152 112
219 112 113 153
220 154 153 113
221 113 114 154
222 155 154 114
223 114 115 155
224 156 155 115
225 115 116 156
226 157 156 116
227 116 117 157
228 158 157 117
229 117 118 158
230 159 158 118
231 118 119 159
232 160 159 119
233 119 120 160
234 161 160 120
235 120 121 161
236 162 161 121
237 121 122 162
238 163 162 122
239 122 123 163
240 164 163 123
241 124 125 165
242 166 165 125
243 125 126 166
244 167 166 126
245 126 127 167
246 168 167 127
247 127 128 168
248 169 168 128
249 128 129 169
250 170 169 129
251 129 130 170
252 171 170 130
253 130 131 171
254 172 171 131
255 131 132 172
256 173 172 132
257 132 133 173
258 174 173 133
259 133 134 174
260 175 174 134
261 134 135 175
262 176 175 135
263 135 136 176
264 177 176 136
265 136 137 177
266 178 177 137
267 137 138 178
268 179 178 138
269 138 139 179
270 180 179 139
271 139 140 180
272 181 180 140
273 140 141 181
274 182 181 141
275 141 142 182
276 183 182 142
277 142 143 183
278 184 183 143
279 143 144 184
280 185 184 144
281 144 145 185
282 186 185 145
283 145 146 186
284 187 186 146
285 146 147 187
286 188 187 147
287 147 148 188
288 189 188 148
289 148 149 189
290 190 189 149
291 149 150 190
292 191 190 150
293 150 151 191
294 192 191 151
295 151 152 192
296 193 192 152
297 152 153 193
298 194 193 153
299 153 154 194
300 195 194 154
301 154 155 195
302 196 195 155
303 155 156 196
304 197 196 156
305 156 157 197
306 198 197 157
307 157 158 198
308 199 198 158
309 158 159 199
310 200 199 159
311 159 160 200
312 201 200 160
313 160 161 201
314 202 201 161
315 161 162 202
316 203 202 162
317 162 163 203
318 204 203 163
319 163 164 204
320 205 204 164
321 165 166 206
322 207 206 166
323 166 167 207
324 208 207 167
325 167 168 208
326 209 208 168
327 168 169 209
328 210 209 169
329 169 170 210
330 211 210 170
331 170 171 211
332 212 211 171
333 171 172 212
334 213 212 172
335 172 173 213
336 214 213 173
337 173 174 214
338 215 214 174
339 174 175 215
340 216 215 175
341 175 176 216
342 217 216 176
343 176 177 217
344 218 217 177
345 177 178 218
346 219 218 178
347 178 179 219
348 220 219 179
349 179 180 220
350 221 220 180
351 180 181 221
352 222 221 181
353 181 182 222
354 223 222 182
355 182 183 223
356 224 223 183
357 183 184 224
358 225 224 184
359 184 185 225
360 226 225 185
361 185 186 226
362 227 226 186
363 186 187 227
364 228 227 187
365 187 188 228
366 229 228 188
367 188 189 229
368 230 229 189
369 189 190 230
370 231 230 190
371 190 191 231
372 232 231 191
373 191 192 232
374 233 232 192
375 192 193 233
376 234 233 193
377 193 194 234
378 235 234 194
379 194 195 235
380 236 235 195
381 195 196 236
382 237 236 196
383 196 197 237
384 238 237 197
385 197 198 238
386 239 238 198
387 198 199 239
388 240 239 199
389 199 200 240
390 241 240 200
391 200 201 241
392 242 241 201
393 201 202 242
394 243 242 202
395 202 203 243
396 244 243 203
397 203 204 244
398 245 244 204
399 204 205 245
400 246 245 205
401 206 207 247
402 248 247 207
403 207 208 248
404 249 248 208
405 208 209 249
406 250 249 209
407 209 210 250
408 251 250 210
409 210 211 251
410 252 251 211
411 211 212 252
412 253 252 212
413 212 213 253
414 254 253 213
415 213 214 254
416 255 254 214
417 214 215 255
418 256 255 215
419 215 216 256
420 257 256 216
421 216 217 257
422 258 257 217
423 217 218 258
424 259 258 218
425 218 219 259
426 260 259 219
427 219 220 260
428 261 260 220
429 220 221 261
430 262 261 221
431 221 222 262
432 263 262 222
433 222 223 263
434 264 263 223
435 223 224 264
436 265 264 224
437 224 225 265
438 266 265 225
439 225 226 266
440 267 266 226
441 226 227 267
442 268 267 227
443 227 228 268
444 269 268 228
445 228 229 269
446 270 269 229
447 229 230 270
448 271 270 230
449 230 231 271
450 272 271 231
451 231 232 272
452 273 272 232
453 232 233 273
454 274 273 233
455 233 234 274
456 275 274 234
457 234 235 275
458 276 275 235
459 235 236 276
460 277 276 236
461 236 237 277
462 278 277 237
463 237 238 278
464 279 278 238
465 238 239 279
466 280 279 239
467 239 240 280
468 281 280 240
469 240 241 281
470 282 281 241
471 241 242 282
472 283 282 242
473 242 243 283
474 284 283 243
475 243 244 284
476 285 284 244
477 244 245 285
478 286 285 245
479 245 246 286
480 287 286 246
481 247 248 288
482 289 288 248
483 248 249 289
484 290 289 249
485 249 250 290
486 291 290 250
487 250 251 291
488 292 291 251
489 251 252 292
490 293 292 252
491 252 253 293
492 294 293 253
493 253 254 294
494 295 294 254
495 254 255 295
496 296 295 255
497 255 256 296
498 297 296 256
499 256 257 297
500 298 297 257
501 257 258 298
502 299 298 258
503 258 259 299
504 300 299 259
505 259 260 300
506 301 300 260
507 260 261 301
508 302 301 261
509 261 262 302
510 303 302 262
511 262 263 303
512 304 303 263
513 263 264 304
514 305 304 264
515 264 265 305
516 306 305 265
517 265 266 306
518 307 306 266
519 266 267 307
520 308 307 267
521 267 268 308
522 309 308 268
523 268 269 309
524 310 309 269
525 269 270 310
526 311 310 270
527 270 271 311
528 312 311 271
529 271 272 312
530 313 312 272
531 272 273 313
532 314 313 273
533 273 274 314
534 315 314 274
535 274 275 315
536 316 315 275
537 275 276 316
538 317 316 276
539 276 277 317
540 318 317 277
541 277 278 318
542 319 318 278
543 278 279 319
544 320 319 279
545 279 280 320
546 321 320 280
547 280 281 321
548 322 321 281
549 281 282 322
550 323 322 282
551 282 283 323
552 324 323 283
553 283 284 324
554 325 324 284
555 284 285 325
556 326 325 285
557 285 286 326
558 327 326 286
559 286 287 327
560 328 327 287
561 288 289 329
562 330 329 289
563 289 290 330
564 331 330 290
565 290 291 331
566 332 331 291
567 291 292 332
568 333 332 292
569 292 293 333
570 334 333 293
571 293 294 334
572 335 334 294
573 294 295 335
574 336 335 295
575 295 296 336
576 337 336 296
577 296 297 337
578 338 337 297
579 297 298 338
580 339 338 298
581 298 299 339
582 340 339 299
583 299 300 340
584 341 340 300
585 300 301 341
586 342 341 301
587 301 302 342
588 343 342 302
589 302 303 343
590 344 343 303
591 303 304 344
592 345 344 304
593 304 305 345
594 346 345 305
595 305 306 346
596 347 346 306
597 306 307 347
598 348 347 307
599 307 308 348
600 349 348 308
601 308 309 349
602 350 349 309
603 309 310 350
604 351 350 310
605 310 311 351
606 352 351 311
607 311 312 352
608 353 352 312
609 312 313 353
610 354 353 313
611 313 314 354
612 355 354 314
613 314 315 355
614 356 355 315
615 315 316 356
616 357 356 316
617 316 317 357
618 358 357 317
619 317 318 358
620 359 358 318
621 318 319 359
622 360 359 319
623 319 320 360
624 361 360 320
625 320 321 361
626 362 361 321
627 321 322 362
628 363 362 322
629 322 323 363
630 364 363 323
631 323 324 364
632 365 364 324
633 324 325 365
634 366 365 325
635 325 326 366
636 367 366 326
637 326 327 367
638 368 367 327
639 327 328 368
640 369 368 328
641 329 330 370
642 371 370 330
643 330 331 371
644 372 371 331
645 331 332 372
646 373 372 332
647 332 333 373
648 374 373 333
649 333 334 374
650 375 374 334
651 334 335 375
652 376 375 335
653 335 336 376
654 377 376 336
655 336 337 377
656 378 377 337
657 337 338 378
658 379 378 338
659 338 339 379
660 380 379 339
661 339 340 380
662 381 380 340
663 340 341 381
664 382 381 341
665 341 342 382
666 383 382 342
667 342 343 383
668 384 383 343
669 343 344 384
670 385 384 344
671 344 345 385
672 386 385 345
673 345 346 386
674 387 386 346
675 346 347 387
676 388 387 347
677 347 348 388
678 389 388 348
679 348 349 389
680 390 389 349
681 349 350 390
682 391 390 350
683 350 351 391
684 392 391 351
685 351 352 392
686 393 392 352
687 352 353 393
688 394 393 353
689 353 354 394
690 395 394 354
691 354 355 395
692 396 395 355
693 355 356 396
694 397 396 356
695 356 357 397
696 398 397 357
697 357 358 398
698 399 398 358
699 358 359 399
700 400 399 359
701 359 360 400
702 401 400 360
703 360 361 401
704 402 401 361
705 361 362 402
706 403 402 362
707 362 363 403
708 404 403 363
709 363 364 404
710 405 404 364
711 364 365 405
712 406 405 365
713 365 366 406
714 407 406 366
715 366 367 407
716 408 407 367
717 367 368 408
718 409 408 368
719 368 369 409
720 410 409 369
721 370 371 411
722 412 411 371
723 371 372 412
724 413 412 372
725 372 373 413
726 414 413 373
727 373 374 414
728 415 414 374
729 374 375 415
730 416 415 375
731 375 376 416
732 417 416 376
733 376 377 417
734 418 417 377
735 377 378 418
736 419 418 378
737 378 379 419
738 420 419 379
739 379 380 420
740 421 420 380
741 380 381 421
742 422 421 381
743 381 382 422
744 423 422 382
745 382 383 423
746 424 423 383
747 383 384 424
748 425 424 384
749 384 385 425
750 426 425 385
751 385 386 426
752 427 426 386
753 386 387 427
754 428 427 387
755 387 388 428
756 429 428 388
757 388 389 429
758 430 429 389
759 389 390 430
760 431 430 390
761 390 391 431
762 432 431 391
763 391 392 432
764 433 432 392
765 392 393 433
766 434 433 393
767 393 394 434
768 435 434 394
769 394 395 435
770 436 435 395
771 395 396 436
772 437 436 396
773 396 397 437
774 438 437 397
775 397 398 438
776 439 438 398
777 398 399 439
778 440 439 399
779 399 400 440
780 441 440 400
781 400 401 441
782 442 441 401
783 401 402 442
784 443 442 402
785 402 403 443
786 444 443 403
787 403 404 444
788 445 444 404
789 404 405 445
790 446 445 405
791 405 406 446
792 447 446 406
793 406 407 447
794 448 447 407
795 407 408 448
796 449 448 408
797 408 409 449
798 450 449 409
799 409 410 450
800 451 450 410
801 411 412 452
802 453 452 412
803 412 413 453
804 454 453 413
805 413 414 454
806 455 454 414
807 414 415 455
808 456 455 415
809 415 416 456
810 457 456 416
811 416 417 457
812 458 457 417
813 417 418 458
814 459 458 418
815 418 419 459
816 460 459 419
817 419 420 460
818 461 460 420
819 420 421 461
820 462 461 421
821 421 422 462
822 463 462 422
823 422 423 463
824 464 463 423
825 423 424 464
826 465 464 424
827 424 425 465
828 466 465 425
829 425 426 466
830 467 466 426
831 426 427 467
832 468 467 427
833 427 428 468
834 469 468 428
835 428 429 469
836 470 469 429
837 429 430 470
838 471 470 430
839 430 431 471
840 472 471 431
841 431 432 472
842 473 472 432
843 432 433 473
844 474 473 433
845 433 434 474
846 475 474 434
847 434 435 475
848 476 475 435
849 435 436 476
850 477 476 436
851 452 453 478
852 479 478 453
853 453 454 479
854 480 479 454
855 454 455 480
856 481 480 455
857 455 456 481
858 482 481 456
859 456 457 482
860 483 482 457
861 457 458 483
862 484 483 458
863 458 459 484
864 485 484 459
865 459 460 485
866 486 485 460
867 460 461 486
868 487 486 461
869 461 462 487
870 488 487 462
871 462 463 488
872 489 488 463
873 463 464 489
874 490 489 464
875 464 465 490
876 491 490 465
877 465 466 491
878 492 491 466
879 466 467 492
880 493 492 467
881 467 468 493
882 494 493 468
883 468 469 494
884 495 494 469
885 469 470 495
886 496 495 470
887 470 471 496
888 497 496 471
889 471 472 497
890 498 497 472
891 472 473 498
892 499 498 473
893 473 474 499
894 500 499 474
895 474 475 500
896 501 500 475
897 475 476 501
898 502 501 476
899 476 477 502
900 503 502 477
901 478 479 504
902 505 504 479
903 479 480 505
904 506 505 480
905 480 481 506
906 507 506 481
907 481 482 507
908 508 507 482
909 482 483 508
910 509 508 483
911 483 484 509
912 510 509 484
913 484 485 510
914 511 510 485
915 485 486 511
916 512 511 486
917 486 487 512
918 513 512 487
919 487 488 513
920 514 513 488
921 488 489 514
922 515 514 489
923 489 490 515
924 516 515 490
925 490 491 516
926 517 516 491
927 491 492 517
928 518 517 492
929 492 493 518
930 519 518 493
931 493 494 519
932 520 519 494
933 494 495 520
934 521 520 495
935 495 496 521
936 522 521 496
937 496 497 522
938 523 522 497
939 497 498 523
940 524 523 498
941 498 499 524
942 525 524 499
943 499 500 525
944 526 525 500
945 500 501 526
946 527 526 501
947 501 502 527
948 528 527 502
949 502 503 528
950 529 528 503
951 504 505 530
952 531 530 505
953 505 506 531
954 532 531 506
955 506 507 532
956 533 532 507
957 507 508 533
958 534 533 508
959 508 509 534
960 535 534 509
961 509 510 535
962 536 535 510
963 510 511 536
964 537 536 511
965 511 512 537
966 538 537 512
967 512 513 538
968 539 538 513
969 513 514 539
970 540 539 514
971 514 515 540
972 541 540 515
973 515 516 541
974 542 541 516
975 516 517 542
976 543 542 517
977 517 518 543
978 544 543 518
979 518 519 544
980 545 544 519
981 519 520 545
982 546 545 520
983 520 521 546
984 547 546 521
985 521 522 547
986 548 547 522
987 522 523 548
988 549 548 523
989 523 524 549
990 550 549 524
991 524 525 550
992 551 550 525
993 525 526 551
994 552 551 526
995 526 527 552
996 553 552 527
997 527 528 553
998 554 553 528
999 528 529 554
1000 555 554 529
1001 530 531 556
1002 557 556 531
1003 531 532 557
1004 558 557 532
1005 532 533 558
1006 559 558 533
1007 533 534 559
1008 560 559 534
1009 534 535 560
1010 561 560 535
1011 535 536 561
1012 562 561 536
1013 536 537 562
1014 563 562 537
1015 537 538 563
1016 564 563 538
1017 538 539 564
1018 565 564 539
1019 539 540 565
1020 566 565 540
1021 540 541 566
1022 567 566 541
1023 541 542 567
1024 568 567 542
1025 542 543 568
1026 569 568 543
1027 543 544 569
1028 570 569 544
1029 544 545 570
1030 571 570 545
1031 545 546 571
1032 572 571 546
1033 546 547 572
1034 573 572 547
1035 547 548 573
1036 574 573 548
1037 548 549 574
1038 575 574 549
1039 549 550 575
1040 576 575 550
1041 550 551 576
1042 577 576 551
1043 551 552 577
1044 578 577 552
1045 552 553 578
1046 579 578 553
1047 553 554 579
1048 580 579 554
1049 554 555 580
1050 581 580 555
1051 556 557 582
1052 583 582 557
1053 557 558 583
1054 584 583 558
1055 558 559 584
1056 585 584 559
1057 559 560 585
1058 586 585 560
1059 560 561 586
1060 587 586 561
1061 561 562 587
1062 588 587 562
1063 562 563 588
1064 589 588 563
1065 563 564 589
1066 590 589 564
1067 564 565 590
1068 591 590 565
1069 565 566 591
1070 592 591 566
1071 566 567 592
1072 593 592 567
1073 567 568 593
1074 594 593 568
1075 568 569 594
1076 595 594 569
1077 569 570 595
1078 596 595 570
1079 570 571 596
1080 597 596 571
1081 571 572 597
1082 598 597 572
1083 572 573 598
1084 599 598 573
1085 573 574 599
1086 600 599 574
1087 574 575 600
1088 601 600 575
1089 575 576 601
1090 602 601 576
1091 576 577 602
1092 603 602 577
1093 577 578 603
1094 604 603 578
1095 578 579 604
1096 605 604 579
1097 579 580 605
1098 606 605 580
1099 580 581 606
1100 607 606 581
1101 582 583 608
1102 609 608 583
1103 583 584 609
1104 610 609 584
1105 584 585 610
1106 611 610 585
1107 585 586 611
1108 612 611 586
1109 586 587 612
1110 613 612 587
1111 587 588 613
1112 614 613 588
1113 588 589 614
1114 615 614 589
1115 589 590 615
1116 616 615 590
1117 590 591 616
1118 617 616 591
1119 591 592 617
1120 618 617 592
1121 592 593 618
1122 619 618 593
1123 593 594 619
1124 620 619 594
1125 594 595 620
1126 621 620 595
1127 595 596 621
1128 622 621 596
1129 596 597 622
1130 623 622 597
1131 597 598 623
1132 624 623 598
1133 598 599 624
1134 625 624 599
1135 599 600 625
1136 626 625 600
1137 600 601 626
1138 627 626 601
1139 601 602 627
1140 628 627 602
1141 602 603 628
1142 629 628 603
1143 603 604 629
1144 630 629 604
1145 604 605 630
1146 631 630 605
1147 605 606 631
1148 632 631 606
1149 606 607 632
1150 633 632 607
1151 608 609 634
1152 635 634 609
1153 609 610 635
1154 636 635 610
1155 610 611 636
1156 637 636 611
1157 611 612 637
1158 638 637 612
1159 612 613 638
1160 639 638 613
1161 613 614 639
1162 640 639 614
1163 614 615 640
1164 641 640 615
1165 615 616 641
1166 642 641 616
1167 616 617 642
1168 643 642 617
1169 617 618 643
1170 644 643 618
1171 618 619 644
1172 645 644 619
1173 619 620 645
1174 646 645 620
1175 620 621 646
1176 647 646 621
1177 621 622 647
1178 648 647 622
1179 622 623 648
1180 649 648 623
1181 623 624 649
1182 650 649 624
1183 624 625 650
1184 651 650 625
1185 625 626 651
1186 652 651 626
1187 626 627 652
1188 653 652 627
1189 627 628 653
1190 654 653 628
1191 628 629 654
1192 655 654 629
1193 629 630 655
1194 656 655 630
1195 630 631 656
1196 657 656 631
1197 631 632 657
1198 658 657 632
1199 632 633 658
1200 659 658 633
1201 634 635 660
1202 661 660 635
1203 635 636 661
1204 662 661 636
1205 636 637 662
1206 663 662 637
1207 637 638 663
1208 664 663 638
1209 638 639 664
1210 665 664 639
1211 639 640 665
1212 666 665 640
1213 640 641 666
1214 667 666 641
1215 641 642 667
1216 668 667 642
1217 642 643 668
1218 669 668 643
1219 643 644 669
1220 670 669 644
1221 644 645 670
1222 671 670 645
1223 645 646 671
1224 672 671 646
1225 646 647 672
1226 673 672 647
1227 647 648 673
1228 674 673 648
1229 648 649 674
1230 675 674 649
1231 649 650 675
1232 676 675 650
1233 650 651 676
1234 677 676 651
1235 651 652 677
1236 678 677 652
1237 652 653 678
1238 679 678 653
1239 653 654 679
1240 680 679 654
1241 654 655 680
1242 681 680 655
1243 655 656 681
1244 682 681 656
1245 656 657 682
1246 683 682 657
1247 657 658 683
1248 684 683 658
1249 658 659 684
1250 685 684 659
1251 660 661 686
1252 687 686 661
1253 661 662 687
1254 688 687 662
1255 662 663 688
1256 689 688 663
1257 663 664 689
1258 690 689 664
1259 664 665 690
1260 691 690 665
1261 665 666 691
1262 692 691 666
1263 666 667 692
1264 693 692 667
1265 667 668 693
1266 694 693 668
1267 668 669 694
1268 695 694 669
1269 669 670 695
1270 696 695 670
1271 670 671 696
1272 697 696 671
1273 671 672 697
1274 698 697 672
1275 672 673 698
1276 699 698 673
1277 673 674 699
1278 700 699 674
1279 674 675 700
1280 701 700 675
1281 675 676 701
1282 702 701 676
1283 676 677 702
1284 703 702 677
1285 677 678 703
1286 704 703 678
1287 678 679 704
1288 705 704 679
1289 679 680 705
1290 706 705 680
1291 680 681 706
1292 707 706 681
1293 681 682 707
1294 708 707 682
1295 682 683 708
1296 709 708 683
1297 683 684 709
1298 710 709 684
1299 684 685 710
1300 711 710 685
$EndElements
